<?xml version="1.0" standalone="no"?>
<!DOCTYPE svg PUBLIC "-//W3C//DTD SVG 20010904//EN"
 "http://www.w3.org/TR/2001/REC-SVG-20010904/DTD/svg10.dtd">
<svg version="1.0" xmlns="http://www.w3.org/2000/svg"
 width="512.000000pt" height="512.000000pt" viewBox="0 0 512.000000 512.000000"
 preserveAspectRatio="xMidYMid meet">

<g transform="translate(0.000000,512.000000) scale(0.100000,-0.100000)"
fill="#000000" stroke="none">
<path d="M1120 4679 c-221 -39 -429 -155 -563 -314 -75 -90 -159 -258 -191
-387 -93 -366 -26 -813 189 -1257 127 -261 272 -457 516 -698 100 -97 132
-123 167 -132 75 -21 147 11 182 79 22 44 25 85 10 126 -6 15 -79 98 -163 183
-230 236 -336 385 -448 631 -201 442 -233 844 -90 1136 69 138 199 247 356
297 106 33 280 30 390 -6 44 -15 109 -43 145 -64 80 -46 223 -187 270 -266 88
-148 105 -162 190 -162 85 0 102 14 190 162 47 79 190 220 270 266 36 21 101
49 145 64 70 23 96 27 205 27 110 0 134 -3 198 -26 213 -76 356 -239 409 -465
27 -118 24 -373 -6 -508 -36 -156 -37 -203 -9 -244 53 -78 139 -102 212 -59
54 31 72 67 101 193 102 451 20 878 -219 1142 -102 112 -284 218 -456 264
-119 32 -366 33 -481 1 -183 -50 -341 -142 -476 -279 l-83 -83 -83 84 c-134
135 -297 230 -476 278 -88 23 -313 33 -401 17z"/>
<path d="M3060 2873 c-194 -21 -407 -100 -580 -216 -201 -134 -450 -451 -450
-572 0 -110 99 -186 203 -155 52 15 81 47 142 155 87 155 253 307 422 385 295
137 651 113 921 -63 88 -58 159 -122 243 -223 49 -59 79 -86 105 -94 82 -27
169 14 199 95 35 89 4 148 -164 316 -157 157 -300 246 -504 314 -160 53 -371
76 -537 58z"/>
<path d="M2820 2069 c-14 -5 -92 -77 -175 -159 l-150 -149 -397 -3 c-383 -3
-398 -4 -424 -24 -53 -39 -69 -71 -69 -134 0 -63 16 -95 69 -134 27 -20 41
-21 459 -24 238 -2 448 0 467 3 26 5 59 30 135 106 l101 98 114 -230 c79 -158
125 -240 147 -259 56 -50 145 -52 201 -5 15 13 91 118 167 234 l140 210 547 3
c534 3 547 3 574 24 53 39 69 71 69 134 0 63 -16 95 -69 134 -27 21 -37 21
-646 21 -609 0 -619 0 -647 -21 -15 -11 -67 -78 -116 -150 -48 -71 -91 -130
-95 -132 -4 -1 -52 88 -107 198 -55 111 -111 212 -125 225 -45 43 -113 56
-170 34z"/>
<path d="M2125 1266 c-59 -27 -95 -85 -95 -152 0 -80 122 -268 269 -415 188
-188 392 -299 651 -355 119 -26 381 -26 500 0 259 56 463 167 651 355 148 148
269 335 269 416 0 110 -99 186 -203 155 -52 -15 -80 -47 -142 -156 -95 -168
-281 -329 -466 -403 -131 -52 -199 -65 -359 -65 -120 0 -160 4 -230 22 -271
73 -483 239 -620 487 -23 41 -55 84 -72 96 -38 27 -112 34 -153 15z"/>
</g>
</svg>
