<?xml version="1.0" standalone="no"?>
<!DOCTYPE svg PUBLIC "-//W3C//DTD SVG 20010904//EN"
 "http://www.w3.org/TR/2001/REC-SVG-20010904/DTD/svg10.dtd">
<svg version="1.0" xmlns="http://www.w3.org/2000/svg"
 width="512.000000pt" height="512.000000pt" viewBox="0 0 512.000000 512.000000"
 preserveAspectRatio="xMidYMid meet">

<g transform="translate(0.000000,512.000000) scale(0.100000,-0.100000)"
fill="#000000" stroke="none">
<path d="M2015 4626 c-37 -17 -70 -52 -84 -89 -6 -16 -11 -84 -11 -153 l0
-124 -90 -45 c-90 -45 -90 -45 -153 -35 -79 13 -241 13 -287 0 -129 -36 -152
-220 -37 -290 26 -16 51 -20 132 -20 55 0 131 -7 170 -15 120 -26 126 -24 334
80 151 75 196 103 218 132 l28 36 0 218 c0 204 -1 219 -21 245 -11 15 -32 37
-46 47 -34 25 -113 32 -153 13z"/>
<path d="M2975 4626 c-37 -17 -70 -52 -84 -89 -7 -16 -11 -108 -11 -218 0
-212 6 -240 61 -282 53 -40 378 -197 407 -197 15 0 59 7 97 15 199 42 406 -1
585 -121 l73 -49 298 0 c285 0 299 1 325 21 53 39 69 71 69 134 0 63 -16 95
-69 134 -25 20 -45 21 -274 26 -246 5 -247 5 -288 31 -194 127 -441 185 -678
160 l-111 -12 -87 40 -86 40 -4 140 c-3 151 -9 168 -70 214 -34 25 -113 32
-153 13z"/>
<path d="M415 3986 c-67 -29 -105 -106 -91 -181 9 -47 59 -102 104 -116 24 -6
136 -9 314 -7 261 3 278 4 304 24 53 39 69 71 69 134 0 63 -16 95 -69 134 -26
20 -42 21 -314 23 -223 2 -294 0 -317 -11z"/>
<path d="M2015 3826 c-67 -29 -105 -105 -90 -183 5 -31 28 -60 123 -155 126
-125 150 -138 229 -123 49 9 109 69 118 118 15 77 1 104 -113 221 -59 59 -121
115 -139 122 -40 17 -89 17 -128 0z"/>
<path d="M2975 3826 c-16 -8 -78 -63 -137 -122 -114 -117 -128 -144 -113 -221
9 -49 69 -109 118 -118 79 -15 103 -2 229 123 95 95 118 124 123 155 25 132
-100 236 -220 183z"/>
<path d="M897 3185 c-15 -8 -47 -30 -70 -49 -24 -20 -70 -48 -103 -63 -51 -23
-76 -28 -181 -33 -102 -4 -126 -8 -150 -26 -99 -74 -98 -201 4 -270 64 -43
256 -39 389 6 32 11 58 20 60 20 1 0 8 -17 15 -37 53 -165 167 -344 305 -481
l104 -103 10 -85 c13 -105 58 -231 110 -310 l39 -59 1 -184 0 -184 -29 -46
c-94 -146 -142 -301 -144 -466 -3 -190 16 -257 86 -309 22 -16 43 -21 95 -21
78 0 107 16 143 79 21 38 22 42 10 145 -14 116 -6 189 30 286 35 93 29 91 154
56 130 -37 176 -39 235 -8 83 41 115 156 63 225 -34 46 -66 62 -188 96 l-120
33 -5 210 -5 210 -48 61 c-81 103 -100 158 -107 297 -6 146 -12 158 -122 240
-95 71 -154 134 -219 233 -74 113 -111 222 -144 424 -15 95 -134 157 -218 113z"/>
<path d="M2495 3186 c-73 -33 -95 -83 -95 -212 l0 -95 -274 3 -274 3 -40 30
c-22 17 -66 50 -97 75 -54 41 -63 45 -116 45 -65 0 -98 -18 -136 -75 -29 -42
-31 -112 -4 -157 29 -47 156 -149 236 -188 39 -19 94 -40 124 -45 32 -6 327
-10 745 -10 747 0 760 1 865 54 27 14 87 57 134 95 115 95 137 150 98 237 -21
46 -64 81 -110 90 -56 11 -98 -5 -175 -67 -113 -90 -107 -89 -400 -89 l-254 0
-4 109 c-3 118 -12 141 -70 184 -34 25 -113 32 -153 13z"/>
<path d="M4100 3189 c-29 -12 -68 -46 -81 -72 -6 -10 -17 -59 -25 -110 -19
-121 -46 -201 -107 -319 -44 -87 -49 -103 -44 -144 9 -86 69 -139 156 -139 47
0 64 5 94 28 40 30 107 147 153 265 24 65 30 73 48 67 142 -47 318 -62 398
-36 93 31 138 153 85 232 -43 64 -78 79 -187 79 -56 0 -117 6 -146 15 -47 14
-132 64 -196 116 -30 25 -109 35 -148 18z"/>
<path d="M2015 2386 c-97 -43 -124 -171 -54 -251 42 -47 84 -57 221 -53 126 3
147 11 192 72 29 39 29 133 0 172 -46 62 -65 69 -202 72 -91 1 -136 -2 -157
-12z"/>
<path d="M2815 2386 c-97 -43 -124 -171 -54 -251 42 -47 84 -57 221 -53 99 2
121 6 144 24 53 39 69 71 69 134 0 63 -16 95 -69 134 -24 18 -44 21 -154 24
-91 1 -136 -2 -157 -12z"/>
<path d="M3600 2378 c-66 -45 -74 -67 -80 -202 -5 -112 -8 -129 -37 -187 -18
-35 -48 -83 -67 -105 -20 -23 -40 -54 -46 -69 -5 -14 -10 -113 -10 -220 l0
-194 -51 -15 c-178 -53 -419 -91 -656 -104 -165 -9 -181 -14 -227 -76 -29 -39
-29 -133 0 -172 48 -64 62 -69 217 -68 225 1 441 31 691 96 139 35 130 39 168
-71 21 -59 23 -85 23 -241 0 -199 4 -212 81 -250 71 -35 146 -21 197 39 41 49
51 101 51 261 1 120 -3 158 -22 223 -27 96 -69 189 -116 260 l-36 54 0 182 0
181 34 47 c96 135 145 312 130 471 -7 82 -29 123 -83 159 -46 31 -116 31 -161
1z"/>
<path d="M2015 1906 c-97 -43 -124 -171 -54 -251 42 -47 84 -57 221 -53 126 3
147 11 192 72 29 39 29 133 0 172 -46 62 -65 69 -202 72 -91 1 -136 -2 -157
-12z"/>
<path d="M2815 1906 c-97 -43 -124 -171 -54 -251 42 -47 84 -57 221 -53 99 2
121 6 144 24 53 39 69 71 69 134 0 63 -16 95 -69 134 -24 18 -44 21 -154 24
-91 1 -136 -2 -157 -12z"/>
</g>
</svg>
