<?xml version="1.0" standalone="no"?>
<!DOCTYPE svg PUBLIC "-//W3C//DTD SVG 20010904//EN"
 "http://www.w3.org/TR/2001/REC-SVG-20010904/DTD/svg10.dtd">
<svg version="1.0" xmlns="http://www.w3.org/2000/svg"
 width="512.000000pt" height="512.000000pt" viewBox="0 0 512.000000 512.000000"
 preserveAspectRatio="xMidYMid meet">

<g transform="translate(0.000000,512.000000) scale(0.100000,-0.100000)"
fill="#000000" stroke="none">
<path d="M991 3829 c-82 -25 -157 -102 -180 -185 -6 -21 -11 -94 -11 -161 l0
-121 -142 -4 c-138 -3 -145 -4 -198 -34 -60 -33 -112 -99 -130 -162 -14 -50
-14 -1154 0 -1204 18 -63 70 -129 130 -162 53 -30 60 -31 198 -34 l142 -4 0
-120 c0 -65 5 -138 11 -161 15 -63 68 -128 130 -162 l54 -30 205 0 205 0 55
30 c60 33 112 98 130 163 6 21 10 158 10 319 l0 283 749 2 c739 3 750 3 777
24 53 39 69 71 69 134 0 63 -16 95 -69 134 -27 21 -38 21 -777 24 l-749 2 0
160 0 160 960 0 960 0 0 -601 c0 -389 4 -615 11 -642 15 -63 68 -128 130 -162
l54 -30 205 0 205 0 55 30 c60 33 112 98 130 163 5 20 10 92 10 159 l0 121
143 4 c137 3 144 4 197 34 60 33 112 99 130 162 14 50 14 1154 0 1204 -18 63
-70 129 -130 162 -53 30 -60 31 -197 34 l-141 4 -4 141 c-3 122 -6 148 -25
183 -34 63 -66 97 -119 124 -47 24 -56 25 -254 25 -230 0 -250 -5 -320 -75
-74 -74 -75 -80 -78 -417 l-3 -303 -1069 -2 c-1062 -3 -1069 -3 -1096 -24 -15
-11 -37 -33 -48 -48 -21 -27 -21 -39 -24 -697 l-2 -669 -80 0 -80 0 0 960 0
960 84 0 84 0 20 -34 c40 -67 129 -91 202 -54 64 33 92 85 87 159 -8 95 -62
177 -143 219 -47 24 -58 25 -239 27 -107 1 -205 -3 -224 -8z m3009 -1269 l0
-960 -80 0 -80 0 0 960 0 960 80 0 80 0 0 -960z m-3200 0 l0 -480 -80 0 -80 0
0 480 0 480 80 0 80 0 0 -480z m3680 0 l0 -480 -80 0 -80 0 0 480 0 480 80 0
80 0 0 -480z"/>
</g>
</svg>
